# xmcd
#
# Track frame offsets:
#	150
#	21626
#	44128
#	64756
#	86956
#	105077
#	130344
#	151699
#	169719
#	195302
#	216578
#	238148
#
# Disc length: 3415 seconds
#
# Revision: 1
# Processed by: cddbd v1.5.2PL0 Copyright (c) Steve Scherf et al.
# Submitted via: EZCDAudioConverter 8.0.2.1
#
DISCID=a90d550c
DTITLE=Lê Hiếu - Vol 04. Để Trọn Đời Thương Nhớ
DYEAR=2006
DGENRE=
TTITLE0=Lê Hiếu - Vol 04. Để Trọn Đời Thương Nhớ
TTITLE1=Lê Hiếu - Hãy yêu thật lòng
TTITLE2=Lê Hiếu - Khi đã muộn màng
TTITLE3=Lê Hiếu - Mùa đông im lặng
TTITLE4=Lê Hiếu - Có nhớ tình đầu
TTITLE5=Lê Hiếu - Ngày tình phôi pha
TTITLE6=Lê Hiếu - Riêng mình em
TTITLE7=Lê Hiếu - Có những khi một mình
TTITLE8=Lê Hiếu - Thủy chung
TTITLE9=Lê Hiếu - Vì em yêu anh
TTITLE10=Soundtrack - Vol 04. Để Trọn Đời Thương Nhớ
TTITLE11=Soundtrack - Có nhớ tình đầu
EXTD=
EXTT0=
EXTT1=
EXTT2=
EXTT3=
EXTT4=
EXTT5=
EXTT6=
EXTT7=
EXTT8=
EXTT9=
EXTT10=
EXTT11=
PLAYORDER=
